# Blender v2.80 (sub 60) OBJ File: 'untitled.blend'
# www.blender.org
mtllib screen.mtl
o Cube.001_Cube.002
v 2.371650 4.903922 0.263808
v 2.095392 5.019771 0.263808
v 2.505231 4.632280 0.263808
v 2.247471 4.986967 0.263808
v 2.469073 4.771028 0.263808
v -2.371650 4.903922 0.263808
v 0.000000 5.019771 0.263808
v -2.095392 5.019771 0.263808
v -2.505231 4.632280 0.263808
v -2.247471 4.986967 0.263808
v -2.469073 4.771028 0.263808
v 2.371650 -4.903922 0.263808
v 2.509857 0.000000 0.263808
v 2.095392 -5.019771 0.263808
v 2.505231 -4.632280 0.263808
v 2.247471 -4.986967 0.263808
v 2.469073 -4.771028 0.263808
v -2.371650 -4.903922 0.263808
v 0.000000 -5.019771 0.263808
v -2.509857 0.000000 0.263808
v -2.095392 -5.019771 0.263808
v -2.505231 -4.632280 0.263808
v 0.000000 0.000000 0.263808
v -2.247471 -4.986967 0.263808
v -2.469073 -4.771028 0.263808
vt 0.434787 0.992997
vt 0.454844 0.971660
vt 0.446027 0.984792
vt 0.231372 0.500229
vt 0.458117 0.957950
vt 0.231372 0.996239
vt 0.421023 0.996239
vt 0.458536 0.500229
vt 0.027956 0.992997
vt 0.016717 0.984791
vt 0.007899 0.971660
vt 0.004626 0.957950
vt 0.041720 0.996239
vt 0.004208 0.500229
vt 0.434787 0.007461
vt 0.446027 0.015667
vt 0.454844 0.028799
vt 0.231372 0.004220
vt 0.458117 0.042508
vt 0.421023 0.004220
vt 0.027956 0.007461
vt 0.007899 0.028799
vt 0.016717 0.015667
vt 0.004626 0.042508
vt 0.041720 0.004220
vn 0.0000 0.0000 1.0000
usemtl Material.001
s off
f 4/1/1 5/2/1 1/3/1
f 23/4/1 3/5/1 7/6/1
f 7/6/1 3/5/1 2/7/1
f 2/7/1 5/2/1 4/1/1
f 3/5/1 5/2/1 2/7/1
f 3/5/1 23/4/1 13/8/1
f 10/9/1 6/10/1 11/11/1
f 23/4/1 7/6/1 9/12/1
f 7/6/1 8/13/1 9/12/1
f 8/13/1 10/9/1 11/11/1
f 9/12/1 8/13/1 11/11/1
f 9/12/1 20/14/1 23/4/1
f 16/15/1 12/16/1 17/17/1
f 23/4/1 19/18/1 15/19/1
f 19/18/1 14/20/1 15/19/1
f 14/20/1 16/15/1 17/17/1
f 15/19/1 14/20/1 17/17/1
f 15/19/1 13/8/1 23/4/1
f 24/21/1 25/22/1 18/23/1
f 23/4/1 22/24/1 19/18/1
f 19/18/1 22/24/1 21/25/1
f 21/25/1 25/22/1 24/21/1
f 22/24/1 25/22/1 21/25/1
f 22/24/1 23/4/1 20/14/1
